<svg width="730" height="730" viewBox="0 0 730 730" fill="none" xmlns="http://www.w3.org/2000/svg">
<g clip-path="url(#clip0_2079_3)">
<path d="M593.179 710.937L593.18 710.935C606.356 697.736 614.581 679.528 614.581 659.516V222.04C614.581 214.389 608.356 208.136 600.676 208.136C593.852 208.136 588.176 213.056 586.998 219.54H586.726V222.04V659.539C586.726 671.834 581.649 683.087 573.466 691.269C565.304 699.428 554.052 704.53 541.736 704.53H188.219C175.901 704.53 164.623 699.429 156.465 691.27L156.465 691.269C148.308 683.114 143.227 671.838 143.227 659.516V222.04C143.227 214.39 137.003 208.136 129.323 208.136C121.647 208.136 115.42 214.364 115.42 222.04V659.516C115.42 679.553 123.642 697.757 136.82 710.935C149.977 724.116 168.233 732.338 188.243 732.338H541.758C561.768 732.338 580.001 724.116 593.179 710.937Z" fill="white" stroke="white" stroke-width="5"/>
<path d="M268.543 643.959C276.219 643.959 282.447 637.733 282.447 630.056V224.986C282.447 217.309 276.219 211.082 268.543 211.082C260.866 211.082 254.639 217.309 254.639 224.986V630.056C254.639 637.733 260.866 643.959 268.543 643.959Z" fill="white" stroke="black" stroke-width="5"/>
<path d="M365.001 643.959C372.677 643.959 378.904 637.733 378.904 630.056V224.986C378.904 217.31 372.678 211.082 365.001 211.082C357.324 211.082 351.097 217.309 351.097 224.986V630.056C351.097 637.733 357.324 643.959 365.001 643.959Z" fill="white" stroke="black" stroke-width="5"/>
<path d="M461.482 643.959C469.159 643.959 475.384 637.733 475.384 630.056V224.986C475.384 217.31 469.159 211.082 461.482 211.082C453.804 211.082 447.578 217.309 447.578 224.986V630.056C447.578 637.733 453.805 643.959 461.482 643.959Z" fill="white" stroke="black" stroke-width="5"/>
<path d="M275.795 70.323C275.795 77.9997 269.568 84.227 261.891 84.227C254.215 84.227 247.988 77.9996 247.988 70.323C247.988 50.2655 256.185 32.0584 269.366 18.8783C269.367 18.8783 269.367 18.8782 269.367 18.8782M275.795 70.323L458.842 20.669C446.11 7.935 428.529 0 409.19 0H320.811C301.449 0 283.868 7.911 271.134 20.646L269.367 18.8782M275.795 70.323C275.795 57.9799 280.874 46.7272 289.057 38.5458C297.239 30.386 308.493 25.307 320.836 25.307H409.214C421.532 25.307 432.808 30.4089 440.969 38.5689C449.126 46.7252 454.206 58.0019 454.206 70.323C454.206 77.9994 460.432 84.227 468.109 84.227C475.786 84.227 482.012 77.9994 482.012 70.323C482.012 50.3347 473.789 32.0801 460.61 18.9012M275.795 70.323L460.61 18.9012M269.367 18.8782C282.547 5.69706 300.755 -2.5 320.811 -2.5H409.19C429.226 -2.5 447.434 5.72293 460.61 18.9012M269.367 18.8782L460.61 18.9012" fill="white" stroke="black" stroke-width="5"/>
<path d="M660.74 113.357L660.731 113.347L660.722 113.338C652.863 105.48 642.02 100.608 630.136 100.608H99.863C88.0024 100.608 77.1363 105.48 69.2782 113.338L69.2304 113.386C69.2303 113.386 69.2303 113.386 69.2302 113.386C61.371 121.244 56.5 132.112 56.5 143.972V173.147V173.432C56.5 181.108 62.7274 187.335 70.404 187.335H659.286H659.595C667.272 187.335 673.499 181.108 673.499 173.432V143.972C673.499 132.091 668.631 121.252 660.778 113.395C660.775 113.392 660.772 113.389 660.769 113.386L660.74 113.357ZM88.8969 132.958L88.8969 132.958L88.903 132.951C91.6778 130.157 95.5825 128.416 99.863 128.416H630.137C634.414 128.416 638.297 130.154 641.071 132.951L641.084 132.963L641.097 132.976L641.133 133.012C641.135 133.013 641.137 133.015 641.138 133.017C643.929 135.791 645.668 139.694 645.668 143.972V159.528H84.307V143.972C84.307 139.669 86.0461 135.787 88.8419 133.012L88.842 133.012L88.8489 133.006L88.8969 132.958Z" fill="white" stroke="white" stroke-width="5"/>
</g>
<defs>
<clipPath id="clip0_2079_3">
<rect width="729.837" height="729.838" fill="white"/>
</clipPath>
</defs>
</svg>
