<svg width="1024" height="1024" viewBox="0 0 1024 1024" fill="none" xmlns="http://www.w3.org/2000/svg">
<path d="M880 112H144C126.3 112 112 126.3 112 144V880C112 897.7 126.3 912 144 912H504C508.4 912 512 908.4 512 904V848C512 843.6 508.4 840 504 840H184V184H840V504C840 508.4 843.6 512 848 512H904C908.4 512 912 508.4 912 504V144C912 126.3 897.7 112 880 112ZM653.3 599.4L705.5 547.2C706.557 546.137 707.295 544.799 707.63 543.338C707.965 541.877 707.882 540.351 707.393 538.934C706.903 537.517 706.026 536.266 704.86 535.323C703.695 534.38 702.288 533.783 700.8 533.6L521.4 512.6C516.3 512 511.9 516.3 512.5 521.5L533.5 700.9C534.3 707.5 542.4 710.3 547.1 705.6L599.5 653.2L855.7 909.4C858.8 912.5 863.9 912.5 867 909.4L909.4 867C912.5 863.9 912.5 858.8 909.4 855.7L653.3 599.4Z" fill="white"/>
</svg>
