<svg width="730" height="730" viewBox="0 0 730 730" fill="none" xmlns="http://www.w3.org/2000/svg">
<g clip-path="url(#clip0_2079_3)">
<path d="M589.274 222.04C589.274 215.744 594.38 210.636 600.676 210.636C606.972 210.636 612.081 215.767 612.081 222.04V659.516C612.081 678.83 604.145 696.412 591.411 709.169C578.678 721.903 561.072 729.838 541.758 729.838H188.243C168.928 729.838 151.3 721.903 138.589 709.169C125.855 696.435 117.92 678.856 117.92 659.516V222.04C117.92 215.744 123.028 210.636 129.323 210.636C135.619 210.636 140.727 215.767 140.727 222.04V659.516C140.727 672.536 146.097 684.438 154.697 693.037C163.297 701.638 175.2 707.03 188.219 707.03H541.736C554.755 707.03 566.632 701.636 575.234 693.037C583.858 684.413 589.226 672.534 589.226 659.539V222.04H589.274Z" fill="white"/>
<path d="M279.947 630.056C279.947 636.352 274.839 641.459 268.543 641.459C262.247 641.459 257.139 636.352 257.139 630.056V224.986C257.139 218.69 262.247 213.582 268.543 213.582C274.839 213.582 279.947 218.69 279.947 224.986V630.056Z" fill="white"/>
<path d="M376.404 630.056C376.404 636.352 371.297 641.459 365.001 641.459C358.705 641.459 353.597 636.352 353.597 630.056V224.986C353.597 218.69 358.705 213.582 365.001 213.582C371.297 213.582 376.404 218.69 376.404 224.986V630.056Z" fill="white"/>
<path d="M472.884 630.056C472.884 636.352 467.778 641.459 461.482 641.459C455.185 641.459 450.078 636.352 450.078 630.056V224.986C450.078 218.69 455.185 213.582 461.482 213.582C467.778 213.582 472.884 218.69 472.884 224.986V630.056Z" fill="white"/>
<path d="M273.295 70.323C273.295 76.619 268.187 81.727 261.891 81.727C255.596 81.727 250.488 76.619 250.488 70.323C250.488 50.96 258.399 33.38 271.134 20.646C283.868 7.911 301.449 0 320.811 0H409.19C428.529 0 446.11 7.935 458.842 20.669C471.576 33.403 479.512 51.031 479.512 70.323C479.512 76.619 474.405 81.727 468.109 81.727C461.813 81.727 456.706 76.619 456.706 70.323C456.706 57.304 451.337 45.401 442.736 36.801C434.134 28.2 422.233 22.807 409.214 22.807H320.836C307.793 22.807 295.914 28.176 287.29 36.777C278.664 45.401 273.295 57.28 273.295 70.323Z" fill="white"/>
<path d="M99.863 103.108H630.136C641.325 103.108 651.541 107.693 658.954 115.106L659.001 115.154C666.414 122.566 670.999 132.782 670.999 143.972V173.432C670.999 179.727 665.891 184.835 659.595 184.835H659.286H70.404C64.108 184.835 59 179.727 59 173.432V173.147V143.972C59 132.806 63.585 122.566 70.998 115.154L71.046 115.106C78.458 107.694 88.697 103.108 99.863 103.108ZM630.137 125.916H99.863C94.898 125.916 90.36 127.936 87.129 131.19L87.081 131.238C83.826 134.468 81.807 138.983 81.807 143.972V162.028H648.168V143.972C648.168 139.007 646.148 134.469 642.895 131.238L642.846 131.19C639.617 127.936 635.102 125.916 630.137 125.916Z" fill="white"/>
</g>
<defs>
<clipPath id="clip0_2079_3">
<rect width="729.837" height="729.838" fill="white"/>
</clipPath>
</defs>
</svg>
